M48
;DRILL file {KiCad 4.0.2-stable} date 2016-07-18 1:58:56 PM
;FORMAT={-:-/ absolute / metric / decimal}
FMAT,2
METRIC,TZ
T1C0.400
T2C0.800
T3C1.001
T4C1.016
%
G90
G05
M71
T1
X118.11Y-34.29
X119.38Y-44.45
X120.65Y-63.5
X121.92Y-87.63
X125.73Y-64.77
X138.43Y-57.15
X143.51Y-54.61
X143.51Y-62.23
X143.51Y-66.04
X170.18Y-90.17
X173.99Y-39.37
X179.07Y-74.93
T2
X107.95Y-44.45
X107.95Y-46.99
X107.95Y-49.53
X107.95Y-52.07
X107.95Y-54.61
X107.95Y-57.15
X107.95Y-59.69
X107.95Y-62.23
X107.95Y-64.77
X107.95Y-67.31
X107.95Y-69.85
X107.95Y-72.39
X107.95Y-74.93
X107.95Y-77.47
X115.57Y-44.45
X115.57Y-46.99
X115.57Y-49.53
X115.57Y-52.07
X115.57Y-54.61
X115.57Y-57.15
X115.57Y-59.69
X115.57Y-62.23
X115.57Y-64.77
X115.57Y-67.31
X115.57Y-69.85
X115.57Y-72.39
X115.57Y-74.93
X115.57Y-77.47
X124.46Y-69.85
X124.46Y-77.47
X127.Y-69.85
X127.Y-77.47
X129.54Y-69.85
X129.54Y-77.47
X130.898Y-39.365
X130.898Y-46.985
X132.08Y-69.85
X132.08Y-77.47
X133.438Y-39.365
X133.438Y-46.985
X134.62Y-69.85
X134.62Y-77.47
X135.978Y-39.365
X135.978Y-46.985
X137.16Y-69.85
X137.16Y-77.47
X138.518Y-39.365
X138.518Y-46.985
X139.7Y-69.85
X139.7Y-77.47
X141.058Y-39.365
X141.058Y-46.985
X142.24Y-69.85
X142.24Y-77.47
X143.598Y-39.365
X143.598Y-46.985
X144.78Y-69.85
X144.78Y-77.47
X146.138Y-39.365
X146.138Y-46.985
X147.32Y-69.85
X147.32Y-77.47
X148.678Y-39.365
X148.678Y-46.985
X149.86Y-69.85
X149.86Y-77.47
X151.218Y-39.365
X151.218Y-46.985
X152.4Y-69.85
X152.4Y-77.47
X154.94Y-69.85
X154.94Y-77.47
X157.48Y-69.85
X157.48Y-77.47
X166.37Y-44.45
X166.37Y-46.99
X166.37Y-49.53
X166.37Y-52.07
X166.37Y-54.61
X166.37Y-57.15
X166.37Y-59.69
X166.37Y-62.23
X166.37Y-64.77
X166.37Y-67.31
X166.37Y-69.85
X166.37Y-72.39
X166.37Y-74.93
X166.37Y-77.47
X173.99Y-44.45
X173.99Y-46.99
X173.99Y-49.53
X173.99Y-52.07
X173.99Y-54.61
X173.99Y-57.15
X173.99Y-59.69
X173.99Y-62.23
X173.99Y-64.77
X173.99Y-67.31
X173.99Y-69.85
X173.99Y-72.39
X173.99Y-74.93
X173.99Y-77.47
T3
X96.623Y-49.09
X96.653Y-62.96
X97.073Y-42.44
X97.173Y-56.05
X97.173Y-69.72
X97.233Y-35.63
X99.163Y-49.09
X99.193Y-62.96
X99.613Y-42.44
X99.713Y-56.05
X99.713Y-69.72
X99.773Y-35.63
X125.335Y-93.272
X125.335Y-95.812
X131.815Y-92.852
X131.815Y-95.392
X139.035Y-92.692
X139.035Y-95.232
X146.045Y-93.152
X146.045Y-95.692
X152.905Y-93.902
X152.905Y-96.442
X159.155Y-93.302
X159.155Y-95.842
X181.477Y-64.14
X182.107Y-35.59
X182.107Y-49.66
X182.167Y-57.18
X182.227Y-71.05
X182.387Y-42.65
X184.017Y-64.14
X184.647Y-35.59
X184.647Y-49.66
X184.707Y-57.18
X184.767Y-71.05
X184.927Y-42.65
T4
X100.33Y-83.82
X100.33Y-86.36
X103.398Y-95.285
X105.938Y-95.285
X106.047Y-34.165
X108.587Y-34.165
X111.127Y-34.165
X113.667Y-34.165
X125.718Y-34.165
X128.258Y-34.165
X130.798Y-34.165
X133.338Y-34.165
X135.878Y-34.165
X138.418Y-34.165
X143.898Y-34.165
X146.438Y-34.165
X148.978Y-34.165
X151.518Y-34.165
X154.058Y-34.165
X156.598Y-34.165
X171.45Y-95.25
X173.99Y-95.25
X180.34Y-87.63
X180.34Y-90.17
T0
M30
