G04 #@! TF.FileFunction,Copper,L2,Bot,Signal*
%FSLAX46Y46*%
G04 Gerber Fmt 4.6, Leading zero omitted, Abs format (unit mm)*
G04 Created by KiCad (PCBNEW 4.0.2-stable) date 2016-07-18 1:59:09 PM*
%MOMM*%
G01*
G04 APERTURE LIST*
%ADD10C,0.050000*%
%ADD11R,1.727200X2.032000*%
%ADD12O,1.727200X2.032000*%
%ADD13R,1.900000X2.000000*%
%ADD14C,1.900000*%
%ADD15R,2.000000X1.900000*%
%ADD16R,2.032000X2.032000*%
%ADD17O,2.032000X2.032000*%
%ADD18O,2.300000X1.600000*%
%ADD19O,1.600000X2.300000*%
%ADD20C,0.600000*%
%ADD21C,0.250000*%
G04 APERTURE END LIST*
D10*
D11*
X113667381Y-34165000D03*
D12*
X111127381Y-34165000D03*
X108587381Y-34165000D03*
X106047381Y-34165000D03*
D13*
X97233000Y-35630001D03*
D14*
X99773000Y-35630001D03*
D13*
X96623000Y-49090001D03*
D14*
X99163000Y-49090001D03*
D13*
X97173000Y-56050001D03*
D14*
X99713000Y-56050001D03*
D13*
X96653000Y-62960001D03*
D14*
X99193000Y-62960001D03*
D13*
X97173000Y-69720001D03*
D14*
X99713000Y-69720001D03*
D15*
X125335001Y-95812000D03*
D14*
X125335001Y-93272000D03*
D15*
X131815001Y-95392000D03*
D14*
X131815001Y-92852000D03*
D15*
X139035001Y-95232000D03*
D14*
X139035001Y-92692000D03*
D15*
X146045001Y-95692000D03*
D14*
X146045001Y-93152000D03*
D15*
X152905001Y-96442000D03*
D14*
X152905001Y-93902000D03*
D15*
X159155001Y-95842000D03*
D14*
X159155001Y-93302000D03*
D13*
X97073000Y-42440001D03*
D14*
X99613000Y-42440001D03*
D13*
X184767000Y-71049999D03*
D14*
X182227000Y-71049999D03*
D13*
X184017000Y-64139999D03*
D14*
X181477000Y-64139999D03*
D13*
X184707000Y-57179999D03*
D14*
X182167000Y-57179999D03*
D13*
X184647000Y-49659999D03*
D14*
X182107000Y-49659999D03*
D13*
X184927000Y-42649999D03*
D14*
X182387000Y-42649999D03*
D13*
X184647000Y-35589999D03*
D14*
X182107000Y-35589999D03*
D16*
X180340000Y-87630000D03*
D17*
X180340000Y-90170000D03*
D18*
X107950000Y-44450000D03*
X107950000Y-46990000D03*
X107950000Y-49530000D03*
X107950000Y-52070000D03*
X107950000Y-54610000D03*
X107950000Y-57150000D03*
X107950000Y-59690000D03*
X107950000Y-62230000D03*
X107950000Y-64770000D03*
X107950000Y-67310000D03*
X107950000Y-69850000D03*
X107950000Y-72390000D03*
X107950000Y-74930000D03*
X107950000Y-77470000D03*
X115570000Y-77470000D03*
X115570000Y-74930000D03*
X115570000Y-72390000D03*
X115570000Y-69850000D03*
X115570000Y-67310000D03*
X115570000Y-64770000D03*
X115570000Y-62230000D03*
X115570000Y-59690000D03*
X115570000Y-57150000D03*
X115570000Y-54610000D03*
X115570000Y-52070000D03*
X115570000Y-49530000D03*
X115570000Y-46990000D03*
X115570000Y-44450000D03*
D19*
X124460000Y-77470000D03*
X127000000Y-77470000D03*
X129540000Y-77470000D03*
X132080000Y-77470000D03*
X134620000Y-77470000D03*
X137160000Y-77470000D03*
X139700000Y-77470000D03*
X142240000Y-77470000D03*
X144780000Y-77470000D03*
X147320000Y-77470000D03*
X149860000Y-77470000D03*
X152400000Y-77470000D03*
X154940000Y-77470000D03*
X157480000Y-77470000D03*
X157480000Y-69850000D03*
X154940000Y-69850000D03*
X152400000Y-69850000D03*
X149860000Y-69850000D03*
X147320000Y-69850000D03*
X144780000Y-69850000D03*
X142240000Y-69850000D03*
X139700000Y-69850000D03*
X137160000Y-69850000D03*
X134620000Y-69850000D03*
X132080000Y-69850000D03*
X129540000Y-69850000D03*
X127000000Y-69850000D03*
X124460000Y-69850000D03*
D18*
X173990000Y-77470000D03*
X173990000Y-74930000D03*
X173990000Y-72390000D03*
X173990000Y-69850000D03*
X173990000Y-67310000D03*
X173990000Y-64770000D03*
X173990000Y-62230000D03*
X173990000Y-59690000D03*
X173990000Y-57150000D03*
X173990000Y-54610000D03*
X173990000Y-52070000D03*
X173990000Y-49530000D03*
X173990000Y-46990000D03*
X173990000Y-44450000D03*
X166370000Y-44450000D03*
X166370000Y-46990000D03*
X166370000Y-49530000D03*
X166370000Y-52070000D03*
X166370000Y-54610000D03*
X166370000Y-57150000D03*
X166370000Y-59690000D03*
X166370000Y-62230000D03*
X166370000Y-64770000D03*
X166370000Y-67310000D03*
X166370000Y-69850000D03*
X166370000Y-72390000D03*
X166370000Y-74930000D03*
X166370000Y-77470000D03*
D16*
X100330000Y-86360000D03*
D17*
X100330000Y-83820000D03*
D16*
X105938333Y-95285000D03*
D17*
X103398333Y-95285000D03*
D11*
X125718333Y-34165000D03*
D12*
X128258333Y-34165000D03*
X130798333Y-34165000D03*
X133338333Y-34165000D03*
X135878333Y-34165000D03*
X138418333Y-34165000D03*
D11*
X143898333Y-34165000D03*
D12*
X146438333Y-34165000D03*
X148978333Y-34165000D03*
X151518333Y-34165000D03*
X154058333Y-34165000D03*
X156598333Y-34165000D03*
D16*
X171450000Y-95250000D03*
D17*
X173990000Y-95250000D03*
D19*
X130897857Y-46985000D03*
X133437857Y-46985000D03*
X135977857Y-46985000D03*
X138517857Y-46985000D03*
X141057857Y-46985000D03*
X143597857Y-46985000D03*
X146137857Y-46985000D03*
X148677857Y-46985000D03*
X151217857Y-46985000D03*
X151217857Y-39365000D03*
X148677857Y-39365000D03*
X146137857Y-39365000D03*
X143597857Y-39365000D03*
X141057857Y-39365000D03*
X138517857Y-39365000D03*
X135977857Y-39365000D03*
X133437857Y-39365000D03*
X130897857Y-39365000D03*
D20*
X173990000Y-39370000D03*
X119380000Y-44450000D03*
X120650000Y-63500000D03*
X143510000Y-66040000D03*
X170180000Y-90170000D03*
X138430000Y-57150000D03*
X125730000Y-64770000D03*
X143510000Y-62230000D03*
X143510000Y-54610000D03*
X179070000Y-74930000D03*
X121920000Y-87630000D03*
X118110000Y-34290000D03*
D21*
X111127381Y-34165000D02*
X111760000Y-34290000D01*
X111760000Y-34290000D02*
X111760000Y-35560000D01*
X111760000Y-35560000D02*
X118110000Y-41910000D01*
X118110000Y-41910000D02*
X152400000Y-41910000D01*
X152400000Y-41910000D02*
X154940000Y-39370000D01*
X154940000Y-39370000D02*
X173990000Y-39370000D01*
X108587381Y-34165000D02*
X109220000Y-34290000D01*
X109220000Y-34290000D02*
X109220000Y-35560000D01*
X109220000Y-35560000D02*
X116840000Y-43180000D01*
X116840000Y-43180000D02*
X118110000Y-43180000D01*
X118110000Y-43180000D02*
X119380000Y-44450000D01*
X120650000Y-63500000D02*
X123190000Y-66040000D01*
X123190000Y-66040000D02*
X143510000Y-66040000D01*
X173990000Y-59690000D02*
X175260000Y-60960000D01*
X175260000Y-60960000D02*
X176530000Y-60960000D01*
X176530000Y-60960000D02*
X176530000Y-63500000D01*
X176530000Y-63500000D02*
X171450000Y-63500000D01*
X171450000Y-63500000D02*
X170180000Y-62230000D01*
X170180000Y-62230000D02*
X170180000Y-60960000D01*
X170180000Y-60960000D02*
X168910000Y-59690000D01*
X168910000Y-59690000D02*
X168910000Y-58420000D01*
X168910000Y-58420000D02*
X163830000Y-58420000D01*
X163830000Y-58420000D02*
X152400000Y-46990000D01*
X152400000Y-46990000D02*
X151130000Y-46990000D01*
X151130000Y-46990000D02*
X151217857Y-46985000D01*
X170180000Y-90170000D02*
X165100000Y-95250000D01*
X165100000Y-95250000D02*
X158750000Y-95250000D01*
X158750000Y-95250000D02*
X159155001Y-95842000D01*
X125335001Y-95812000D02*
X125730000Y-95250000D01*
X125730000Y-95250000D02*
X123190000Y-97790000D01*
X123190000Y-97790000D02*
X104140000Y-97790000D01*
X104140000Y-97790000D02*
X104140000Y-96520000D01*
X104140000Y-96520000D02*
X102870000Y-95250000D01*
X102870000Y-95250000D02*
X103398333Y-95285000D01*
X184707000Y-57179999D02*
X184150000Y-57150000D01*
X184150000Y-57150000D02*
X184150000Y-58420000D01*
X184150000Y-58420000D02*
X182880000Y-59690000D01*
X182880000Y-59690000D02*
X173990000Y-59690000D01*
X96653000Y-62960001D02*
X96520000Y-63500000D01*
X96520000Y-63500000D02*
X97790000Y-64770000D01*
X97790000Y-64770000D02*
X101600000Y-64770000D01*
X101600000Y-64770000D02*
X104140000Y-62230000D01*
X104140000Y-62230000D02*
X107950000Y-62230000D01*
X97233000Y-35630001D02*
X97790000Y-35560000D01*
X97790000Y-35560000D02*
X97790000Y-34290000D01*
X97790000Y-34290000D02*
X106680000Y-34290000D01*
X106680000Y-34290000D02*
X106047381Y-34165000D01*
X152905001Y-96442000D02*
X152400000Y-96520000D01*
X152400000Y-96520000D02*
X151130000Y-95250000D01*
X151130000Y-95250000D02*
X146050000Y-95250000D01*
X146050000Y-95250000D02*
X146045001Y-95692000D01*
X159155001Y-95842000D02*
X158750000Y-95250000D01*
X158750000Y-95250000D02*
X157480000Y-96520000D01*
X157480000Y-96520000D02*
X152400000Y-96520000D01*
X152400000Y-96520000D02*
X152905001Y-96442000D01*
X146045001Y-95692000D02*
X146050000Y-95250000D01*
X146050000Y-95250000D02*
X138430000Y-95250000D01*
X138430000Y-95250000D02*
X139035001Y-95232000D01*
X139035001Y-95232000D02*
X138430000Y-95250000D01*
X138430000Y-95250000D02*
X132080000Y-95250000D01*
X132080000Y-95250000D02*
X131815001Y-95392000D01*
X131815001Y-95392000D02*
X132080000Y-95250000D01*
X132080000Y-95250000D02*
X125730000Y-95250000D01*
X125730000Y-95250000D02*
X125335001Y-95812000D01*
X99163000Y-49090001D02*
X99060000Y-49530000D01*
X99060000Y-49530000D02*
X101600000Y-52070000D01*
X101600000Y-52070000D02*
X107950000Y-52070000D01*
X107950000Y-54610000D02*
X106680000Y-55880000D01*
X106680000Y-55880000D02*
X100330000Y-55880000D01*
X100330000Y-55880000D02*
X99713000Y-56050001D01*
X107950000Y-57150000D02*
X106680000Y-58420000D01*
X106680000Y-58420000D02*
X105410000Y-58420000D01*
X105410000Y-58420000D02*
X100330000Y-63500000D01*
X100330000Y-63500000D02*
X99060000Y-63500000D01*
X99060000Y-63500000D02*
X99193000Y-62960001D01*
X146045001Y-93152000D02*
X146050000Y-92710000D01*
X146050000Y-92710000D02*
X146050000Y-90170000D01*
X146050000Y-90170000D02*
X135890000Y-80010000D01*
X135890000Y-80010000D02*
X135890000Y-78740000D01*
X135890000Y-78740000D02*
X134620000Y-77470000D01*
X137160000Y-77470000D02*
X137160000Y-78740000D01*
X137160000Y-78740000D02*
X152400000Y-93980000D01*
X152400000Y-93980000D02*
X152905001Y-93902000D01*
X139700000Y-77470000D02*
X139700000Y-78740000D01*
X139700000Y-78740000D02*
X153670000Y-92710000D01*
X153670000Y-92710000D02*
X158750000Y-92710000D01*
X158750000Y-92710000D02*
X159155001Y-93302000D01*
X107950000Y-49530000D02*
X106680000Y-48260000D01*
X106680000Y-48260000D02*
X105410000Y-48260000D01*
X105410000Y-48260000D02*
X99060000Y-41910000D01*
X99060000Y-41910000D02*
X99613000Y-42440001D01*
X173990000Y-74930000D02*
X175260000Y-73660000D01*
X175260000Y-73660000D02*
X176530000Y-73660000D01*
X176530000Y-73660000D02*
X179070000Y-71120000D01*
X179070000Y-71120000D02*
X181610000Y-71120000D01*
X181610000Y-71120000D02*
X182227000Y-71049999D01*
X182387000Y-42649999D02*
X182880000Y-43180000D01*
X182880000Y-43180000D02*
X182880000Y-44450000D01*
X182880000Y-44450000D02*
X186690000Y-48260000D01*
X186690000Y-48260000D02*
X186690000Y-59690000D01*
X186690000Y-59690000D02*
X184150000Y-62230000D01*
X184150000Y-62230000D02*
X180340000Y-62230000D01*
X180340000Y-62230000D02*
X177800000Y-64770000D01*
X177800000Y-64770000D02*
X173990000Y-64770000D01*
X182107000Y-35589999D02*
X181610000Y-35560000D01*
X181610000Y-35560000D02*
X173990000Y-43180000D01*
X173990000Y-43180000D02*
X171450000Y-43180000D01*
X171450000Y-43180000D02*
X171450000Y-60960000D01*
X171450000Y-60960000D02*
X172720000Y-62230000D01*
X172720000Y-62230000D02*
X173990000Y-62230000D01*
X107950000Y-74930000D02*
X109220000Y-76200000D01*
X109220000Y-76200000D02*
X118110000Y-76200000D01*
X118110000Y-76200000D02*
X119380000Y-74930000D01*
X119380000Y-74930000D02*
X151130000Y-74930000D01*
X151130000Y-74930000D02*
X151130000Y-76200000D01*
X151130000Y-76200000D02*
X152400000Y-77470000D01*
X138430000Y-57150000D02*
X142240000Y-60960000D01*
X142240000Y-60960000D02*
X144780000Y-60960000D01*
X144780000Y-60960000D02*
X151130000Y-67310000D01*
X151130000Y-67310000D02*
X151130000Y-72390000D01*
X151130000Y-72390000D02*
X153670000Y-74930000D01*
X153670000Y-74930000D02*
X156210000Y-74930000D01*
X156210000Y-74930000D02*
X156210000Y-76200000D01*
X156210000Y-76200000D02*
X157480000Y-77470000D01*
X125730000Y-64770000D02*
X128270000Y-62230000D01*
X128270000Y-62230000D02*
X143510000Y-62230000D01*
X115570000Y-62230000D02*
X116840000Y-60960000D01*
X116840000Y-60960000D02*
X125730000Y-60960000D01*
X125730000Y-60960000D02*
X137160000Y-49530000D01*
X137160000Y-49530000D02*
X137160000Y-48260000D01*
X137160000Y-48260000D02*
X138430000Y-46990000D01*
X138430000Y-46990000D02*
X138517857Y-46985000D01*
X135977857Y-46985000D02*
X135890000Y-46990000D01*
X135890000Y-46990000D02*
X135890000Y-48260000D01*
X135890000Y-48260000D02*
X124460000Y-59690000D01*
X124460000Y-59690000D02*
X115570000Y-59690000D01*
X133437857Y-46985000D02*
X133350000Y-46990000D01*
X133350000Y-46990000D02*
X133350000Y-48260000D01*
X133350000Y-48260000D02*
X124460000Y-57150000D01*
X124460000Y-57150000D02*
X115570000Y-57150000D01*
X130897857Y-46985000D02*
X130810000Y-46990000D01*
X130810000Y-46990000D02*
X123190000Y-54610000D01*
X123190000Y-54610000D02*
X115570000Y-54610000D01*
X173990000Y-95250000D02*
X173990000Y-90170000D01*
X173990000Y-90170000D02*
X156210000Y-72390000D01*
X156210000Y-72390000D02*
X153670000Y-72390000D01*
X153670000Y-72390000D02*
X153670000Y-71120000D01*
X153670000Y-71120000D02*
X152400000Y-69850000D01*
X148677857Y-46985000D02*
X148590000Y-46990000D01*
X148590000Y-46990000D02*
X148590000Y-48260000D01*
X148590000Y-48260000D02*
X160020000Y-59690000D01*
X160020000Y-59690000D02*
X166370000Y-59690000D01*
X146137857Y-46985000D02*
X146050000Y-46990000D01*
X146050000Y-46990000D02*
X146050000Y-48260000D01*
X146050000Y-48260000D02*
X160020000Y-62230000D01*
X160020000Y-62230000D02*
X166370000Y-62230000D01*
X143597857Y-46985000D02*
X143510000Y-46990000D01*
X143510000Y-46990000D02*
X143510000Y-48260000D01*
X143510000Y-48260000D02*
X160020000Y-64770000D01*
X160020000Y-64770000D02*
X166370000Y-64770000D01*
X141057857Y-46985000D02*
X140970000Y-46990000D01*
X140970000Y-46990000D02*
X140970000Y-48260000D01*
X140970000Y-48260000D02*
X160020000Y-67310000D01*
X160020000Y-67310000D02*
X166370000Y-67310000D01*
X143510000Y-54610000D02*
X156210000Y-67310000D01*
X156210000Y-67310000D02*
X158750000Y-67310000D01*
X158750000Y-67310000D02*
X158750000Y-68580000D01*
X158750000Y-68580000D02*
X163830000Y-73660000D01*
X163830000Y-73660000D02*
X168910000Y-73660000D01*
X168910000Y-73660000D02*
X171450000Y-76200000D01*
X171450000Y-76200000D02*
X176530000Y-76200000D01*
X176530000Y-76200000D02*
X177800000Y-74930000D01*
X177800000Y-74930000D02*
X179070000Y-74930000D01*
X121920000Y-87630000D02*
X114300000Y-95250000D01*
X114300000Y-95250000D02*
X105410000Y-95250000D01*
X105410000Y-95250000D02*
X105938333Y-95285000D01*
X135878333Y-34165000D02*
X135890000Y-34290000D01*
X135890000Y-34290000D02*
X134620000Y-33020000D01*
X134620000Y-33020000D02*
X134620000Y-31750000D01*
X134620000Y-31750000D02*
X124460000Y-31750000D01*
X124460000Y-31750000D02*
X121920000Y-34290000D01*
X121920000Y-34290000D02*
X118110000Y-34290000D01*
X154058333Y-34165000D02*
X153670000Y-34290000D01*
X153670000Y-34290000D02*
X153670000Y-35560000D01*
X153670000Y-35560000D02*
X142240000Y-35560000D01*
X142240000Y-35560000D02*
X140970000Y-34290000D01*
X140970000Y-34290000D02*
X138430000Y-34290000D01*
X138430000Y-34290000D02*
X138418333Y-34165000D01*
X154058333Y-34165000D02*
X153670000Y-34290000D01*
X153670000Y-34290000D02*
X156210000Y-34290000D01*
X156210000Y-34290000D02*
X156598333Y-34165000D01*
X138418333Y-34165000D02*
X138430000Y-34290000D01*
X138430000Y-34290000D02*
X135890000Y-34290000D01*
X135890000Y-34290000D02*
X135878333Y-34165000D01*
X133437857Y-39365000D02*
X133350000Y-39370000D01*
X133350000Y-39370000D02*
X132080000Y-38100000D01*
X132080000Y-38100000D02*
X132080000Y-36830000D01*
X132080000Y-36830000D02*
X130810000Y-36830000D01*
X130810000Y-36830000D02*
X128270000Y-34290000D01*
X128270000Y-34290000D02*
X128258333Y-34165000D01*
X130798333Y-34165000D02*
X130810000Y-34290000D01*
X130810000Y-34290000D02*
X133350000Y-36830000D01*
X133350000Y-36830000D02*
X134620000Y-36830000D01*
X134620000Y-36830000D02*
X134620000Y-38100000D01*
X134620000Y-38100000D02*
X135890000Y-39370000D01*
X135890000Y-39370000D02*
X135977857Y-39365000D01*
M02*
