G04 #@! TF.FileFunction,Legend,Top*
%FSLAX46Y46*%
G04 Gerber Fmt 4.6, Leading zero omitted, Abs format (unit mm)*
G04 Created by KiCad (PCBNEW 4.0.2-stable) date 2016-07-18 1:59:09 PM*
%MOMM*%
G01*
G04 APERTURE LIST*
%ADD10C,0.050000*%
%ADD11C,0.150000*%
G04 APERTURE END LIST*
D10*
D11*
X112397381Y-32895000D02*
X104777381Y-32895000D01*
X112397381Y-35435000D02*
X104777381Y-35435000D01*
X115217381Y-35715000D02*
X113667381Y-35715000D01*
X104777381Y-32895000D02*
X104777381Y-35435000D01*
X112397381Y-35435000D02*
X112397381Y-32895000D01*
X113667381Y-32615000D02*
X115217381Y-32615000D01*
X115217381Y-32615000D02*
X115217381Y-35715000D01*
X96018112Y-37154905D02*
G75*
G03X96003000Y-34130001I2484888J1524904D01*
G01*
X96003000Y-37130001D02*
X96003000Y-34130001D01*
X101020936Y-35630001D02*
G75*
G03X101020936Y-35630001I-2517936J0D01*
G01*
X95408112Y-50614905D02*
G75*
G03X95393000Y-47590001I2484888J1524904D01*
G01*
X95393000Y-50590001D02*
X95393000Y-47590001D01*
X100410936Y-49090001D02*
G75*
G03X100410936Y-49090001I-2517936J0D01*
G01*
X95958112Y-57574905D02*
G75*
G03X95943000Y-54550001I2484888J1524904D01*
G01*
X95943000Y-57550001D02*
X95943000Y-54550001D01*
X100960936Y-56050001D02*
G75*
G03X100960936Y-56050001I-2517936J0D01*
G01*
X95438112Y-64484905D02*
G75*
G03X95423000Y-61460001I2484888J1524904D01*
G01*
X95423000Y-64460001D02*
X95423000Y-61460001D01*
X100440936Y-62960001D02*
G75*
G03X100440936Y-62960001I-2517936J0D01*
G01*
X95958112Y-71244905D02*
G75*
G03X95943000Y-68220001I2484888J1524904D01*
G01*
X95943000Y-71220001D02*
X95943000Y-68220001D01*
X100960936Y-69720001D02*
G75*
G03X100960936Y-69720001I-2517936J0D01*
G01*
X126859905Y-97026888D02*
G75*
G03X123835001Y-97042000I-1524904J2484888D01*
G01*
X126835001Y-97042000D02*
X123835001Y-97042000D01*
X127852937Y-94542000D02*
G75*
G03X127852937Y-94542000I-2517936J0D01*
G01*
X133339905Y-96606888D02*
G75*
G03X130315001Y-96622000I-1524904J2484888D01*
G01*
X133315001Y-96622000D02*
X130315001Y-96622000D01*
X134332937Y-94122000D02*
G75*
G03X134332937Y-94122000I-2517936J0D01*
G01*
X140559905Y-96446888D02*
G75*
G03X137535001Y-96462000I-1524904J2484888D01*
G01*
X140535001Y-96462000D02*
X137535001Y-96462000D01*
X141552937Y-93962000D02*
G75*
G03X141552937Y-93962000I-2517936J0D01*
G01*
X147569905Y-96906888D02*
G75*
G03X144545001Y-96922000I-1524904J2484888D01*
G01*
X147545001Y-96922000D02*
X144545001Y-96922000D01*
X148562937Y-94422000D02*
G75*
G03X148562937Y-94422000I-2517936J0D01*
G01*
X154429905Y-97656888D02*
G75*
G03X151405001Y-97672000I-1524904J2484888D01*
G01*
X154405001Y-97672000D02*
X151405001Y-97672000D01*
X155422937Y-95172000D02*
G75*
G03X155422937Y-95172000I-2517936J0D01*
G01*
X160679905Y-97056888D02*
G75*
G03X157655001Y-97072000I-1524904J2484888D01*
G01*
X160655001Y-97072000D02*
X157655001Y-97072000D01*
X161672937Y-94572000D02*
G75*
G03X161672937Y-94572000I-2517936J0D01*
G01*
X95858112Y-43964905D02*
G75*
G03X95843000Y-40940001I2484888J1524904D01*
G01*
X95843000Y-43940001D02*
X95843000Y-40940001D01*
X100860936Y-42440001D02*
G75*
G03X100860936Y-42440001I-2517936J0D01*
G01*
X185981888Y-69525095D02*
G75*
G03X185997000Y-72549999I-2484888J-1524904D01*
G01*
X185997000Y-69549999D02*
X185997000Y-72549999D01*
X186014936Y-71049999D02*
G75*
G03X186014936Y-71049999I-2517936J0D01*
G01*
X185231888Y-62615095D02*
G75*
G03X185247000Y-65639999I-2484888J-1524904D01*
G01*
X185247000Y-62639999D02*
X185247000Y-65639999D01*
X185264936Y-64139999D02*
G75*
G03X185264936Y-64139999I-2517936J0D01*
G01*
X185921888Y-55655095D02*
G75*
G03X185937000Y-58679999I-2484888J-1524904D01*
G01*
X185937000Y-55679999D02*
X185937000Y-58679999D01*
X185954936Y-57179999D02*
G75*
G03X185954936Y-57179999I-2517936J0D01*
G01*
X185861888Y-48135095D02*
G75*
G03X185877000Y-51159999I-2484888J-1524904D01*
G01*
X185877000Y-48159999D02*
X185877000Y-51159999D01*
X185894936Y-49659999D02*
G75*
G03X185894936Y-49659999I-2517936J0D01*
G01*
X186141888Y-41125095D02*
G75*
G03X186157000Y-44149999I-2484888J-1524904D01*
G01*
X186157000Y-41149999D02*
X186157000Y-44149999D01*
X186174936Y-42649999D02*
G75*
G03X186174936Y-42649999I-2517936J0D01*
G01*
X185861888Y-34065095D02*
G75*
G03X185877000Y-37089999I-2484888J-1524904D01*
G01*
X185877000Y-34089999D02*
X185877000Y-37089999D01*
X185894936Y-35589999D02*
G75*
G03X185894936Y-35589999I-2517936J0D01*
G01*
X181610000Y-88900000D02*
X181610000Y-91440000D01*
X181890000Y-86080000D02*
X181890000Y-87630000D01*
X181610000Y-88900000D02*
X179070000Y-88900000D01*
X178790000Y-87630000D02*
X178790000Y-86080000D01*
X178790000Y-86080000D02*
X181890000Y-86080000D01*
X179070000Y-88900000D02*
X179070000Y-91440000D01*
X179070000Y-91440000D02*
X181610000Y-91440000D01*
X108085000Y-42155000D02*
X108085000Y-43425000D01*
X115435000Y-42155000D02*
X115435000Y-43425000D01*
X115435000Y-79765000D02*
X115435000Y-78495000D01*
X108085000Y-79765000D02*
X108085000Y-78495000D01*
X108085000Y-42155000D02*
X115435000Y-42155000D01*
X108085000Y-79765000D02*
X115435000Y-79765000D01*
X108085000Y-43425000D02*
X106800000Y-43425000D01*
X122165000Y-77335000D02*
X123435000Y-77335000D01*
X122165000Y-69985000D02*
X123435000Y-69985000D01*
X159775000Y-69985000D02*
X158505000Y-69985000D01*
X159775000Y-77335000D02*
X158505000Y-77335000D01*
X122165000Y-77335000D02*
X122165000Y-69985000D01*
X159775000Y-77335000D02*
X159775000Y-69985000D01*
X123435000Y-77335000D02*
X123435000Y-78620000D01*
X173855000Y-79765000D02*
X173855000Y-78495000D01*
X166505000Y-79765000D02*
X166505000Y-78495000D01*
X166505000Y-42155000D02*
X166505000Y-43425000D01*
X173855000Y-42155000D02*
X173855000Y-43425000D01*
X173855000Y-79765000D02*
X166505000Y-79765000D01*
X173855000Y-42155000D02*
X166505000Y-42155000D01*
X173855000Y-78495000D02*
X175140000Y-78495000D01*
X99060000Y-85090000D02*
X99060000Y-82550000D01*
X98780000Y-87910000D02*
X98780000Y-86360000D01*
X99060000Y-85090000D02*
X101600000Y-85090000D01*
X101880000Y-86360000D02*
X101880000Y-87910000D01*
X101880000Y-87910000D02*
X98780000Y-87910000D01*
X101600000Y-85090000D02*
X101600000Y-82550000D01*
X101600000Y-82550000D02*
X99060000Y-82550000D01*
X104668333Y-96555000D02*
X102128333Y-96555000D01*
X107488333Y-96835000D02*
X105938333Y-96835000D01*
X104668333Y-96555000D02*
X104668333Y-94015000D01*
X105938333Y-93735000D02*
X107488333Y-93735000D01*
X107488333Y-93735000D02*
X107488333Y-96835000D01*
X104668333Y-94015000D02*
X102128333Y-94015000D01*
X102128333Y-94015000D02*
X102128333Y-96555000D01*
X126988333Y-32895000D02*
X139688333Y-32895000D01*
X139688333Y-32895000D02*
X139688333Y-35435000D01*
X139688333Y-35435000D02*
X126988333Y-35435000D01*
X124168333Y-32615000D02*
X125718333Y-32615000D01*
X126988333Y-32895000D02*
X126988333Y-35435000D01*
X125718333Y-35715000D02*
X124168333Y-35715000D01*
X124168333Y-35715000D02*
X124168333Y-32615000D01*
X145168333Y-32895000D02*
X157868333Y-32895000D01*
X157868333Y-32895000D02*
X157868333Y-35435000D01*
X157868333Y-35435000D02*
X145168333Y-35435000D01*
X142348333Y-32615000D02*
X143898333Y-32615000D01*
X145168333Y-32895000D02*
X145168333Y-35435000D01*
X143898333Y-35715000D02*
X142348333Y-35715000D01*
X142348333Y-35715000D02*
X142348333Y-32615000D01*
X100925000Y-77970000D02*
X100925000Y-76970000D01*
X102275000Y-76970000D02*
X102275000Y-77970000D01*
X111260000Y-38695000D02*
X112260000Y-38695000D01*
X112260000Y-40045000D02*
X111260000Y-40045000D01*
X125135000Y-83320000D02*
X125135000Y-84320000D01*
X123785000Y-84320000D02*
X123785000Y-83320000D01*
X179665000Y-79240000D02*
X179665000Y-78240000D01*
X181015000Y-78240000D02*
X181015000Y-79240000D01*
X172045000Y-86860000D02*
X172045000Y-85860000D01*
X173395000Y-85860000D02*
X173395000Y-86860000D01*
X133945000Y-58920000D02*
X133945000Y-57920000D01*
X135295000Y-57920000D02*
X135295000Y-58920000D01*
X146725000Y-57920000D02*
X146725000Y-58920000D01*
X145375000Y-58920000D02*
X145375000Y-57920000D01*
X169900000Y-96800000D02*
X171450000Y-96800000D01*
X175260000Y-96520000D02*
X172720000Y-96520000D01*
X172720000Y-96520000D02*
X172720000Y-93980000D01*
X171450000Y-93700000D02*
X169900000Y-93700000D01*
X169900000Y-93700000D02*
X169900000Y-96800000D01*
X172720000Y-93980000D02*
X175260000Y-93980000D01*
X175260000Y-93980000D02*
X175260000Y-96520000D01*
X128602857Y-46850000D02*
X129872857Y-46850000D01*
X128602857Y-39500000D02*
X129872857Y-39500000D01*
X153512857Y-39500000D02*
X152242857Y-39500000D01*
X153512857Y-46850000D02*
X152242857Y-46850000D01*
X128602857Y-46850000D02*
X128602857Y-39500000D01*
X153512857Y-46850000D02*
X153512857Y-39500000D01*
X129872857Y-46850000D02*
X129872857Y-48135000D01*
X108867143Y-42163333D02*
X108914762Y-42258571D01*
X108914762Y-42449048D01*
X108867143Y-42544286D01*
X108819524Y-42591905D01*
X108724286Y-42639524D01*
X108438571Y-42639524D01*
X108343333Y-42591905D01*
X108295714Y-42544286D01*
X108248095Y-42449048D01*
X108248095Y-42258571D01*
X108295714Y-42163333D01*
X108914762Y-41591905D02*
X108867143Y-41687143D01*
X108819524Y-41734762D01*
X108724286Y-41782381D01*
X108438571Y-41782381D01*
X108343333Y-41734762D01*
X108295714Y-41687143D01*
X108248095Y-41591905D01*
X108248095Y-41449047D01*
X108295714Y-41353809D01*
X108343333Y-41306190D01*
X108438571Y-41258571D01*
X108724286Y-41258571D01*
X108819524Y-41306190D01*
X108867143Y-41353809D01*
X108914762Y-41449047D01*
X108914762Y-41591905D01*
X108248095Y-40830000D02*
X108914762Y-40830000D01*
X108343333Y-40830000D02*
X108295714Y-40782381D01*
X108248095Y-40687143D01*
X108248095Y-40544285D01*
X108295714Y-40449047D01*
X108390952Y-40401428D01*
X108914762Y-40401428D01*
X108914762Y-39496666D02*
X107914762Y-39496666D01*
X108867143Y-39496666D02*
X108914762Y-39591904D01*
X108914762Y-39782381D01*
X108867143Y-39877619D01*
X108819524Y-39925238D01*
X108724286Y-39972857D01*
X108438571Y-39972857D01*
X108343333Y-39925238D01*
X108295714Y-39877619D01*
X108248095Y-39782381D01*
X108248095Y-39591904D01*
X108295714Y-39496666D01*
X108914762Y-39020476D02*
X108248095Y-39020476D01*
X107914762Y-39020476D02*
X107962381Y-39068095D01*
X108010000Y-39020476D01*
X107962381Y-38972857D01*
X107914762Y-39020476D01*
X108010000Y-39020476D01*
X108914762Y-38544286D02*
X107914762Y-38544286D01*
X108295714Y-38544286D02*
X108248095Y-38449048D01*
X108248095Y-38258571D01*
X108295714Y-38163333D01*
X108343333Y-38115714D01*
X108438571Y-38068095D01*
X108724286Y-38068095D01*
X108819524Y-38115714D01*
X108867143Y-38163333D01*
X108914762Y-38258571D01*
X108914762Y-38449048D01*
X108867143Y-38544286D01*
X108914762Y-37115714D02*
X108914762Y-37687143D01*
X108914762Y-37401429D02*
X107914762Y-37401429D01*
X108057619Y-37496667D01*
X108152857Y-37591905D01*
X108200476Y-37687143D01*
X98018905Y-40146382D02*
X98018905Y-39146382D01*
X98257000Y-39146382D01*
X98399858Y-39194001D01*
X98495096Y-39289239D01*
X98542715Y-39384477D01*
X98590334Y-39574953D01*
X98590334Y-39717811D01*
X98542715Y-39908287D01*
X98495096Y-40003525D01*
X98399858Y-40098763D01*
X98257000Y-40146382D01*
X98018905Y-40146382D01*
X99542715Y-40146382D02*
X98971286Y-40146382D01*
X99257000Y-40146382D02*
X99257000Y-39146382D01*
X99161762Y-39289239D01*
X99066524Y-39384477D01*
X98971286Y-39432096D01*
X95066095Y-37987382D02*
X95066095Y-36987382D01*
X95637524Y-37987382D02*
X95208952Y-37415953D01*
X95637524Y-36987382D02*
X95066095Y-37558811D01*
X97408905Y-53606382D02*
X97408905Y-52606382D01*
X97647000Y-52606382D01*
X97789858Y-52654001D01*
X97885096Y-52749239D01*
X97932715Y-52844477D01*
X97980334Y-53034953D01*
X97980334Y-53177811D01*
X97932715Y-53368287D01*
X97885096Y-53463525D01*
X97789858Y-53558763D01*
X97647000Y-53606382D01*
X97408905Y-53606382D01*
X98361286Y-52701620D02*
X98408905Y-52654001D01*
X98504143Y-52606382D01*
X98742239Y-52606382D01*
X98837477Y-52654001D01*
X98885096Y-52701620D01*
X98932715Y-52796858D01*
X98932715Y-52892096D01*
X98885096Y-53034953D01*
X98313667Y-53606382D01*
X98932715Y-53606382D01*
X94456095Y-51447382D02*
X94456095Y-50447382D01*
X95027524Y-51447382D02*
X94598952Y-50875953D01*
X95027524Y-50447382D02*
X94456095Y-51018811D01*
X97958905Y-60566382D02*
X97958905Y-59566382D01*
X98197000Y-59566382D01*
X98339858Y-59614001D01*
X98435096Y-59709239D01*
X98482715Y-59804477D01*
X98530334Y-59994953D01*
X98530334Y-60137811D01*
X98482715Y-60328287D01*
X98435096Y-60423525D01*
X98339858Y-60518763D01*
X98197000Y-60566382D01*
X97958905Y-60566382D01*
X98863667Y-59566382D02*
X99482715Y-59566382D01*
X99149381Y-59947334D01*
X99292239Y-59947334D01*
X99387477Y-59994953D01*
X99435096Y-60042572D01*
X99482715Y-60137811D01*
X99482715Y-60375906D01*
X99435096Y-60471144D01*
X99387477Y-60518763D01*
X99292239Y-60566382D01*
X99006524Y-60566382D01*
X98911286Y-60518763D01*
X98863667Y-60471144D01*
X95006095Y-58407382D02*
X95006095Y-57407382D01*
X95577524Y-58407382D02*
X95148952Y-57835953D01*
X95577524Y-57407382D02*
X95006095Y-57978811D01*
X97438905Y-67476382D02*
X97438905Y-66476382D01*
X97677000Y-66476382D01*
X97819858Y-66524001D01*
X97915096Y-66619239D01*
X97962715Y-66714477D01*
X98010334Y-66904953D01*
X98010334Y-67047811D01*
X97962715Y-67238287D01*
X97915096Y-67333525D01*
X97819858Y-67428763D01*
X97677000Y-67476382D01*
X97438905Y-67476382D01*
X98867477Y-66809715D02*
X98867477Y-67476382D01*
X98629381Y-66428763D02*
X98391286Y-67143049D01*
X99010334Y-67143049D01*
X94486095Y-65317382D02*
X94486095Y-64317382D01*
X95057524Y-65317382D02*
X94628952Y-64745953D01*
X95057524Y-64317382D02*
X94486095Y-64888811D01*
X97958905Y-74236382D02*
X97958905Y-73236382D01*
X98197000Y-73236382D01*
X98339858Y-73284001D01*
X98435096Y-73379239D01*
X98482715Y-73474477D01*
X98530334Y-73664953D01*
X98530334Y-73807811D01*
X98482715Y-73998287D01*
X98435096Y-74093525D01*
X98339858Y-74188763D01*
X98197000Y-74236382D01*
X97958905Y-74236382D01*
X99435096Y-73236382D02*
X98958905Y-73236382D01*
X98911286Y-73712572D01*
X98958905Y-73664953D01*
X99054143Y-73617334D01*
X99292239Y-73617334D01*
X99387477Y-73664953D01*
X99435096Y-73712572D01*
X99482715Y-73807811D01*
X99482715Y-74045906D01*
X99435096Y-74141144D01*
X99387477Y-74188763D01*
X99292239Y-74236382D01*
X99054143Y-74236382D01*
X98958905Y-74188763D01*
X98911286Y-74141144D01*
X95006095Y-72077382D02*
X95006095Y-71077382D01*
X95577524Y-72077382D02*
X95148952Y-71505953D01*
X95577524Y-71077382D02*
X95006095Y-71648811D01*
X129851382Y-95026095D02*
X128851382Y-95026095D01*
X128851382Y-94788000D01*
X128899001Y-94645142D01*
X128994239Y-94549904D01*
X129089477Y-94502285D01*
X129279953Y-94454666D01*
X129422811Y-94454666D01*
X129613287Y-94502285D01*
X129708525Y-94549904D01*
X129803763Y-94645142D01*
X129851382Y-94788000D01*
X129851382Y-95026095D01*
X128851382Y-93597523D02*
X128851382Y-93788000D01*
X128899001Y-93883238D01*
X128946620Y-93930857D01*
X129089477Y-94026095D01*
X129279953Y-94073714D01*
X129660906Y-94073714D01*
X129756144Y-94026095D01*
X129803763Y-93978476D01*
X129851382Y-93883238D01*
X129851382Y-93692761D01*
X129803763Y-93597523D01*
X129756144Y-93549904D01*
X129660906Y-93502285D01*
X129422811Y-93502285D01*
X129327572Y-93549904D01*
X129279953Y-93597523D01*
X129232334Y-93692761D01*
X129232334Y-93883238D01*
X129279953Y-93978476D01*
X129327572Y-94026095D01*
X129422811Y-94073714D01*
X126738095Y-94432381D02*
X126738095Y-93432381D01*
X127309524Y-94432381D02*
X126880952Y-93860952D01*
X127309524Y-93432381D02*
X126738095Y-94003810D01*
X136331382Y-94606095D02*
X135331382Y-94606095D01*
X135331382Y-94368000D01*
X135379001Y-94225142D01*
X135474239Y-94129904D01*
X135569477Y-94082285D01*
X135759953Y-94034666D01*
X135902811Y-94034666D01*
X136093287Y-94082285D01*
X136188525Y-94129904D01*
X136283763Y-94225142D01*
X136331382Y-94368000D01*
X136331382Y-94606095D01*
X135331382Y-93701333D02*
X135331382Y-93034666D01*
X136331382Y-93463238D01*
X133802381Y-94241905D02*
X132802381Y-94241905D01*
X133802381Y-93670476D02*
X133230952Y-94099048D01*
X132802381Y-93670476D02*
X133373810Y-94241905D01*
X143551382Y-94446095D02*
X142551382Y-94446095D01*
X142551382Y-94208000D01*
X142599001Y-94065142D01*
X142694239Y-93969904D01*
X142789477Y-93922285D01*
X142979953Y-93874666D01*
X143122811Y-93874666D01*
X143313287Y-93922285D01*
X143408525Y-93969904D01*
X143503763Y-94065142D01*
X143551382Y-94208000D01*
X143551382Y-94446095D01*
X142979953Y-93303238D02*
X142932334Y-93398476D01*
X142884715Y-93446095D01*
X142789477Y-93493714D01*
X142741858Y-93493714D01*
X142646620Y-93446095D01*
X142599001Y-93398476D01*
X142551382Y-93303238D01*
X142551382Y-93112761D01*
X142599001Y-93017523D01*
X142646620Y-92969904D01*
X142741858Y-92922285D01*
X142789477Y-92922285D01*
X142884715Y-92969904D01*
X142932334Y-93017523D01*
X142979953Y-93112761D01*
X142979953Y-93303238D01*
X143027572Y-93398476D01*
X143075191Y-93446095D01*
X143170430Y-93493714D01*
X143360906Y-93493714D01*
X143456144Y-93446095D01*
X143503763Y-93398476D01*
X143551382Y-93303238D01*
X143551382Y-93112761D01*
X143503763Y-93017523D01*
X143456144Y-92969904D01*
X143360906Y-92922285D01*
X143170430Y-92922285D01*
X143075191Y-92969904D01*
X143027572Y-93017523D01*
X142979953Y-93112761D01*
X141422381Y-94241905D02*
X140422381Y-94241905D01*
X141422381Y-93670476D02*
X140850952Y-94099048D01*
X140422381Y-93670476D02*
X140993810Y-94241905D01*
X150561382Y-94906095D02*
X149561382Y-94906095D01*
X149561382Y-94668000D01*
X149609001Y-94525142D01*
X149704239Y-94429904D01*
X149799477Y-94382285D01*
X149989953Y-94334666D01*
X150132811Y-94334666D01*
X150323287Y-94382285D01*
X150418525Y-94429904D01*
X150513763Y-94525142D01*
X150561382Y-94668000D01*
X150561382Y-94906095D01*
X150561382Y-93858476D02*
X150561382Y-93668000D01*
X150513763Y-93572761D01*
X150466144Y-93525142D01*
X150323287Y-93429904D01*
X150132811Y-93382285D01*
X149751858Y-93382285D01*
X149656620Y-93429904D01*
X149609001Y-93477523D01*
X149561382Y-93572761D01*
X149561382Y-93763238D01*
X149609001Y-93858476D01*
X149656620Y-93906095D01*
X149751858Y-93953714D01*
X149989953Y-93953714D01*
X150085191Y-93906095D01*
X150132811Y-93858476D01*
X150180430Y-93763238D01*
X150180430Y-93572761D01*
X150132811Y-93477523D01*
X150085191Y-93429904D01*
X149989953Y-93382285D01*
X147772381Y-94241905D02*
X146772381Y-94241905D01*
X147772381Y-93670476D02*
X147200952Y-94099048D01*
X146772381Y-93670476D02*
X147343810Y-94241905D01*
X157421382Y-96132286D02*
X156421382Y-96132286D01*
X156421382Y-95894191D01*
X156469001Y-95751333D01*
X156564239Y-95656095D01*
X156659477Y-95608476D01*
X156849953Y-95560857D01*
X156992811Y-95560857D01*
X157183287Y-95608476D01*
X157278525Y-95656095D01*
X157373763Y-95751333D01*
X157421382Y-95894191D01*
X157421382Y-96132286D01*
X157421382Y-94608476D02*
X157421382Y-95179905D01*
X157421382Y-94894191D02*
X156421382Y-94894191D01*
X156564239Y-94989429D01*
X156659477Y-95084667D01*
X156707096Y-95179905D01*
X156421382Y-93989429D02*
X156421382Y-93894190D01*
X156469001Y-93798952D01*
X156516620Y-93751333D01*
X156611858Y-93703714D01*
X156802334Y-93656095D01*
X157040430Y-93656095D01*
X157230906Y-93703714D01*
X157326144Y-93751333D01*
X157373763Y-93798952D01*
X157421382Y-93894190D01*
X157421382Y-93989429D01*
X157373763Y-94084667D01*
X157326144Y-94132286D01*
X157230906Y-94179905D01*
X157040430Y-94227524D01*
X156802334Y-94227524D01*
X156611858Y-94179905D01*
X156516620Y-94132286D01*
X156469001Y-94084667D01*
X156421382Y-93989429D01*
X155392381Y-95511905D02*
X154392381Y-95511905D01*
X155392381Y-94940476D02*
X154820952Y-95369048D01*
X154392381Y-94940476D02*
X154963810Y-95511905D01*
X163671382Y-95532286D02*
X162671382Y-95532286D01*
X162671382Y-95294191D01*
X162719001Y-95151333D01*
X162814239Y-95056095D01*
X162909477Y-95008476D01*
X163099953Y-94960857D01*
X163242811Y-94960857D01*
X163433287Y-95008476D01*
X163528525Y-95056095D01*
X163623763Y-95151333D01*
X163671382Y-95294191D01*
X163671382Y-95532286D01*
X163671382Y-94008476D02*
X163671382Y-94579905D01*
X163671382Y-94294191D02*
X162671382Y-94294191D01*
X162814239Y-94389429D01*
X162909477Y-94484667D01*
X162957096Y-94579905D01*
X163671382Y-93056095D02*
X163671382Y-93627524D01*
X163671382Y-93341810D02*
X162671382Y-93341810D01*
X162814239Y-93437048D01*
X162909477Y-93532286D01*
X162957096Y-93627524D01*
X161742381Y-95511905D02*
X160742381Y-95511905D01*
X161742381Y-94940476D02*
X161170952Y-95369048D01*
X160742381Y-94940476D02*
X161313810Y-95511905D01*
X97858905Y-46956382D02*
X97858905Y-45956382D01*
X97858905Y-46908763D02*
X97763667Y-46956382D01*
X97573190Y-46956382D01*
X97477952Y-46908763D01*
X97430333Y-46861144D01*
X97382714Y-46765906D01*
X97382714Y-46480191D01*
X97430333Y-46384953D01*
X97477952Y-46337334D01*
X97573190Y-46289715D01*
X97763667Y-46289715D01*
X97858905Y-46337334D01*
X98858905Y-46956382D02*
X98287476Y-46956382D01*
X98573190Y-46956382D02*
X98573190Y-45956382D01*
X98477952Y-46099239D01*
X98382714Y-46194477D01*
X98287476Y-46242096D01*
X99811286Y-46956382D02*
X99239857Y-46956382D01*
X99525571Y-46956382D02*
X99525571Y-45956382D01*
X99430333Y-46099239D01*
X99335095Y-46194477D01*
X99239857Y-46242096D01*
X94906095Y-44797382D02*
X94906095Y-43797382D01*
X95477524Y-44797382D02*
X95048952Y-44225953D01*
X95477524Y-43797382D02*
X94906095Y-44368811D01*
X182028714Y-67438380D02*
X182028714Y-66438380D01*
X182266809Y-66438380D01*
X182409667Y-66485999D01*
X182504905Y-66581237D01*
X182552524Y-66676475D01*
X182600143Y-66866951D01*
X182600143Y-67009809D01*
X182552524Y-67200285D01*
X182504905Y-67295523D01*
X182409667Y-67390761D01*
X182266809Y-67438380D01*
X182028714Y-67438380D01*
X183552524Y-67438380D02*
X182981095Y-67438380D01*
X183266809Y-67438380D02*
X183266809Y-66438380D01*
X183171571Y-66581237D01*
X183076333Y-66676475D01*
X182981095Y-66724094D01*
X183933476Y-66533618D02*
X183981095Y-66485999D01*
X184076333Y-66438380D01*
X184314429Y-66438380D01*
X184409667Y-66485999D01*
X184457286Y-66533618D01*
X184504905Y-66628856D01*
X184504905Y-66724094D01*
X184457286Y-66866951D01*
X183885857Y-67438380D01*
X184504905Y-67438380D01*
X186410095Y-69597380D02*
X186410095Y-68597380D01*
X186981524Y-69597380D02*
X186552952Y-69025951D01*
X186981524Y-68597380D02*
X186410095Y-69168809D01*
X181278714Y-60528380D02*
X181278714Y-59528380D01*
X181516809Y-59528380D01*
X181659667Y-59575999D01*
X181754905Y-59671237D01*
X181802524Y-59766475D01*
X181850143Y-59956951D01*
X181850143Y-60099809D01*
X181802524Y-60290285D01*
X181754905Y-60385523D01*
X181659667Y-60480761D01*
X181516809Y-60528380D01*
X181278714Y-60528380D01*
X182802524Y-60528380D02*
X182231095Y-60528380D01*
X182516809Y-60528380D02*
X182516809Y-59528380D01*
X182421571Y-59671237D01*
X182326333Y-59766475D01*
X182231095Y-59814094D01*
X183135857Y-59528380D02*
X183754905Y-59528380D01*
X183421571Y-59909332D01*
X183564429Y-59909332D01*
X183659667Y-59956951D01*
X183707286Y-60004570D01*
X183754905Y-60099809D01*
X183754905Y-60337904D01*
X183707286Y-60433142D01*
X183659667Y-60480761D01*
X183564429Y-60528380D01*
X183278714Y-60528380D01*
X183183476Y-60480761D01*
X183135857Y-60433142D01*
X185660095Y-62687380D02*
X185660095Y-61687380D01*
X186231524Y-62687380D02*
X185802952Y-62115951D01*
X186231524Y-61687380D02*
X185660095Y-62258809D01*
X181968714Y-53568380D02*
X181968714Y-52568380D01*
X182206809Y-52568380D01*
X182349667Y-52615999D01*
X182444905Y-52711237D01*
X182492524Y-52806475D01*
X182540143Y-52996951D01*
X182540143Y-53139809D01*
X182492524Y-53330285D01*
X182444905Y-53425523D01*
X182349667Y-53520761D01*
X182206809Y-53568380D01*
X181968714Y-53568380D01*
X183492524Y-53568380D02*
X182921095Y-53568380D01*
X183206809Y-53568380D02*
X183206809Y-52568380D01*
X183111571Y-52711237D01*
X183016333Y-52806475D01*
X182921095Y-52854094D01*
X184349667Y-52901713D02*
X184349667Y-53568380D01*
X184111571Y-52520761D02*
X183873476Y-53235047D01*
X184492524Y-53235047D01*
X186350095Y-55727380D02*
X186350095Y-54727380D01*
X186921524Y-55727380D02*
X186492952Y-55155951D01*
X186921524Y-54727380D02*
X186350095Y-55298809D01*
X181908714Y-46048380D02*
X181908714Y-45048380D01*
X182146809Y-45048380D01*
X182289667Y-45095999D01*
X182384905Y-45191237D01*
X182432524Y-45286475D01*
X182480143Y-45476951D01*
X182480143Y-45619809D01*
X182432524Y-45810285D01*
X182384905Y-45905523D01*
X182289667Y-46000761D01*
X182146809Y-46048380D01*
X181908714Y-46048380D01*
X183432524Y-46048380D02*
X182861095Y-46048380D01*
X183146809Y-46048380D02*
X183146809Y-45048380D01*
X183051571Y-45191237D01*
X182956333Y-45286475D01*
X182861095Y-45334094D01*
X184337286Y-45048380D02*
X183861095Y-45048380D01*
X183813476Y-45524570D01*
X183861095Y-45476951D01*
X183956333Y-45429332D01*
X184194429Y-45429332D01*
X184289667Y-45476951D01*
X184337286Y-45524570D01*
X184384905Y-45619809D01*
X184384905Y-45857904D01*
X184337286Y-45953142D01*
X184289667Y-46000761D01*
X184194429Y-46048380D01*
X183956333Y-46048380D01*
X183861095Y-46000761D01*
X183813476Y-45953142D01*
X186290095Y-48207380D02*
X186290095Y-47207380D01*
X186861524Y-48207380D02*
X186432952Y-47635951D01*
X186861524Y-47207380D02*
X186290095Y-47778809D01*
X182188714Y-39038380D02*
X182188714Y-38038380D01*
X182426809Y-38038380D01*
X182569667Y-38085999D01*
X182664905Y-38181237D01*
X182712524Y-38276475D01*
X182760143Y-38466951D01*
X182760143Y-38609809D01*
X182712524Y-38800285D01*
X182664905Y-38895523D01*
X182569667Y-38990761D01*
X182426809Y-39038380D01*
X182188714Y-39038380D01*
X183712524Y-39038380D02*
X183141095Y-39038380D01*
X183426809Y-39038380D02*
X183426809Y-38038380D01*
X183331571Y-38181237D01*
X183236333Y-38276475D01*
X183141095Y-38324094D01*
X184569667Y-38038380D02*
X184379190Y-38038380D01*
X184283952Y-38085999D01*
X184236333Y-38133618D01*
X184141095Y-38276475D01*
X184093476Y-38466951D01*
X184093476Y-38847904D01*
X184141095Y-38943142D01*
X184188714Y-38990761D01*
X184283952Y-39038380D01*
X184474429Y-39038380D01*
X184569667Y-38990761D01*
X184617286Y-38943142D01*
X184664905Y-38847904D01*
X184664905Y-38609809D01*
X184617286Y-38514570D01*
X184569667Y-38466951D01*
X184474429Y-38419332D01*
X184283952Y-38419332D01*
X184188714Y-38466951D01*
X184141095Y-38514570D01*
X184093476Y-38609809D01*
X186570095Y-41197380D02*
X186570095Y-40197380D01*
X187141524Y-41197380D02*
X186712952Y-40625951D01*
X187141524Y-40197380D02*
X186570095Y-40768809D01*
X179760714Y-39187381D02*
X179760714Y-38187381D01*
X179998809Y-38187381D01*
X180141667Y-38235000D01*
X180236905Y-38330238D01*
X180284524Y-38425476D01*
X180332143Y-38615952D01*
X180332143Y-38758810D01*
X180284524Y-38949286D01*
X180236905Y-39044524D01*
X180141667Y-39139762D01*
X179998809Y-39187381D01*
X179760714Y-39187381D01*
X181284524Y-39187381D02*
X180713095Y-39187381D01*
X180998809Y-39187381D02*
X180998809Y-38187381D01*
X180903571Y-38330238D01*
X180808333Y-38425476D01*
X180713095Y-38473095D01*
X181617857Y-38187381D02*
X182284524Y-38187381D01*
X181855952Y-39187381D01*
X186290095Y-34137380D02*
X186290095Y-33137380D01*
X186861524Y-34137380D02*
X186432952Y-33565951D01*
X186861524Y-33137380D02*
X186290095Y-33708809D01*
X178578095Y-82315714D02*
X178959047Y-82315714D01*
X178720952Y-82982381D02*
X178720952Y-82125238D01*
X178768571Y-82030000D01*
X178863809Y-81982381D01*
X178959047Y-81982381D01*
X179720953Y-82934762D02*
X179625715Y-82982381D01*
X179435238Y-82982381D01*
X179340000Y-82934762D01*
X179292381Y-82887143D01*
X179244762Y-82791905D01*
X179244762Y-82506190D01*
X179292381Y-82410952D01*
X179340000Y-82363333D01*
X179435238Y-82315714D01*
X179625715Y-82315714D01*
X179720953Y-82363333D01*
X180149524Y-82982381D02*
X180149524Y-82315714D01*
X180149524Y-82410952D02*
X180197143Y-82363333D01*
X180292381Y-82315714D01*
X180435239Y-82315714D01*
X180530477Y-82363333D01*
X180578096Y-82458571D01*
X180578096Y-82982381D01*
X180578096Y-82458571D02*
X180625715Y-82363333D01*
X180720953Y-82315714D01*
X180863810Y-82315714D01*
X180959048Y-82363333D01*
X181006667Y-82458571D01*
X181006667Y-82982381D01*
X181435238Y-82077619D02*
X181482857Y-82030000D01*
X181578095Y-81982381D01*
X181816191Y-81982381D01*
X181911429Y-82030000D01*
X181959048Y-82077619D01*
X182006667Y-82172857D01*
X182006667Y-82268095D01*
X181959048Y-82410952D01*
X181387619Y-82982381D01*
X182006667Y-82982381D01*
X117557381Y-67503571D02*
X118271667Y-67503571D01*
X118414524Y-67551191D01*
X118509762Y-67646429D01*
X118557381Y-67789286D01*
X118557381Y-67884524D01*
X118557381Y-66503571D02*
X118557381Y-67075000D01*
X118557381Y-66789286D02*
X117557381Y-66789286D01*
X117700238Y-66884524D01*
X117795476Y-66979762D01*
X117843095Y-67075000D01*
X118692381Y-77803333D02*
X119406667Y-77803333D01*
X119549524Y-77850953D01*
X119644762Y-77946191D01*
X119692381Y-78089048D01*
X119692381Y-78184286D01*
X118787619Y-77374762D02*
X118740000Y-77327143D01*
X118692381Y-77231905D01*
X118692381Y-76993809D01*
X118740000Y-76898571D01*
X118787619Y-76850952D01*
X118882857Y-76803333D01*
X118978095Y-76803333D01*
X119120952Y-76850952D01*
X119692381Y-77422381D01*
X119692381Y-76803333D01*
X173656667Y-82142381D02*
X173656667Y-82856667D01*
X173609047Y-82999524D01*
X173513809Y-83094762D01*
X173370952Y-83142381D01*
X173275714Y-83142381D01*
X174037619Y-82142381D02*
X174656667Y-82142381D01*
X174323333Y-82523333D01*
X174466191Y-82523333D01*
X174561429Y-82570952D01*
X174609048Y-82618571D01*
X174656667Y-82713810D01*
X174656667Y-82951905D01*
X174609048Y-83047143D01*
X174561429Y-83094762D01*
X174466191Y-83142381D01*
X174180476Y-83142381D01*
X174085238Y-83094762D01*
X174037619Y-83047143D01*
X99591905Y-90622381D02*
X99591905Y-89622381D01*
X99972858Y-89622381D01*
X100068096Y-89670000D01*
X100115715Y-89717619D01*
X100163334Y-89812857D01*
X100163334Y-89955714D01*
X100115715Y-90050952D01*
X100068096Y-90098571D01*
X99972858Y-90146190D01*
X99591905Y-90146190D01*
X101115715Y-90622381D02*
X100544286Y-90622381D01*
X100830000Y-90622381D02*
X100830000Y-89622381D01*
X100734762Y-89765238D01*
X100639524Y-89860476D01*
X100544286Y-89908095D01*
X110300238Y-95737381D02*
X110300238Y-94737381D01*
X110681191Y-94737381D01*
X110776429Y-94785000D01*
X110824048Y-94832619D01*
X110871667Y-94927857D01*
X110871667Y-95070714D01*
X110824048Y-95165952D01*
X110776429Y-95213571D01*
X110681191Y-95261190D01*
X110300238Y-95261190D01*
X111252619Y-94832619D02*
X111300238Y-94785000D01*
X111395476Y-94737381D01*
X111633572Y-94737381D01*
X111728810Y-94785000D01*
X111776429Y-94832619D01*
X111824048Y-94927857D01*
X111824048Y-95023095D01*
X111776429Y-95165952D01*
X111205000Y-95737381D01*
X111824048Y-95737381D01*
X121070714Y-34903095D02*
X120070714Y-34903095D01*
X120070714Y-34522142D01*
X120118333Y-34426904D01*
X120165952Y-34379285D01*
X120261190Y-34331666D01*
X120404047Y-34331666D01*
X120499285Y-34379285D01*
X120546904Y-34426904D01*
X120594523Y-34522142D01*
X120594523Y-34903095D01*
X120070714Y-33998333D02*
X120070714Y-33379285D01*
X120451666Y-33712619D01*
X120451666Y-33569761D01*
X120499285Y-33474523D01*
X120546904Y-33426904D01*
X120642143Y-33379285D01*
X120880238Y-33379285D01*
X120975476Y-33426904D01*
X121023095Y-33474523D01*
X121070714Y-33569761D01*
X121070714Y-33855476D01*
X121023095Y-33950714D01*
X120975476Y-33998333D01*
X139250714Y-34903095D02*
X138250714Y-34903095D01*
X138250714Y-34522142D01*
X138298333Y-34426904D01*
X138345952Y-34379285D01*
X138441190Y-34331666D01*
X138584047Y-34331666D01*
X138679285Y-34379285D01*
X138726904Y-34426904D01*
X138774523Y-34522142D01*
X138774523Y-34903095D01*
X138584047Y-33474523D02*
X139250714Y-33474523D01*
X138203095Y-33712619D02*
X138917381Y-33950714D01*
X138917381Y-33331666D01*
X103952381Y-77636666D02*
X103476190Y-77970000D01*
X103952381Y-78208095D02*
X102952381Y-78208095D01*
X102952381Y-77827142D01*
X103000000Y-77731904D01*
X103047619Y-77684285D01*
X103142857Y-77636666D01*
X103285714Y-77636666D01*
X103380952Y-77684285D01*
X103428571Y-77731904D01*
X103476190Y-77827142D01*
X103476190Y-78208095D01*
X103952381Y-76684285D02*
X103952381Y-77255714D01*
X103952381Y-76970000D02*
X102952381Y-76970000D01*
X103095238Y-77065238D01*
X103190476Y-77160476D01*
X103238095Y-77255714D01*
X112863334Y-43632381D02*
X112530000Y-43156190D01*
X112291905Y-43632381D02*
X112291905Y-42632381D01*
X112672858Y-42632381D01*
X112768096Y-42680000D01*
X112815715Y-42727619D01*
X112863334Y-42822857D01*
X112863334Y-42965714D01*
X112815715Y-43060952D01*
X112768096Y-43108571D01*
X112672858Y-43156190D01*
X112291905Y-43156190D01*
X113244286Y-42727619D02*
X113291905Y-42680000D01*
X113387143Y-42632381D01*
X113625239Y-42632381D01*
X113720477Y-42680000D01*
X113768096Y-42727619D01*
X113815715Y-42822857D01*
X113815715Y-42918095D01*
X113768096Y-43060952D01*
X113196667Y-43632381D01*
X113815715Y-43632381D01*
X123012381Y-83986666D02*
X122536190Y-84320000D01*
X123012381Y-84558095D02*
X122012381Y-84558095D01*
X122012381Y-84177142D01*
X122060000Y-84081904D01*
X122107619Y-84034285D01*
X122202857Y-83986666D01*
X122345714Y-83986666D01*
X122440952Y-84034285D01*
X122488571Y-84081904D01*
X122536190Y-84177142D01*
X122536190Y-84558095D01*
X122012381Y-83653333D02*
X122012381Y-83034285D01*
X122393333Y-83367619D01*
X122393333Y-83224761D01*
X122440952Y-83129523D01*
X122488571Y-83081904D01*
X122583810Y-83034285D01*
X122821905Y-83034285D01*
X122917143Y-83081904D01*
X122964762Y-83129523D01*
X123012381Y-83224761D01*
X123012381Y-83510476D01*
X122964762Y-83605714D01*
X122917143Y-83653333D01*
X182692381Y-78906666D02*
X182216190Y-79240000D01*
X182692381Y-79478095D02*
X181692381Y-79478095D01*
X181692381Y-79097142D01*
X181740000Y-79001904D01*
X181787619Y-78954285D01*
X181882857Y-78906666D01*
X182025714Y-78906666D01*
X182120952Y-78954285D01*
X182168571Y-79001904D01*
X182216190Y-79097142D01*
X182216190Y-79478095D01*
X182025714Y-78049523D02*
X182692381Y-78049523D01*
X181644762Y-78287619D02*
X182359048Y-78525714D01*
X182359048Y-77906666D01*
X175072381Y-88526667D02*
X174405714Y-88526667D01*
X174596190Y-88526667D02*
X174500952Y-88479048D01*
X174453333Y-88431429D01*
X174405714Y-88336191D01*
X174405714Y-88240952D01*
X174405714Y-87907619D02*
X175405714Y-87907619D01*
X174453333Y-87907619D02*
X174405714Y-87812381D01*
X174405714Y-87621904D01*
X174453333Y-87526666D01*
X174500952Y-87479047D01*
X174596190Y-87431428D01*
X174881905Y-87431428D01*
X174977143Y-87479047D01*
X175024762Y-87526666D01*
X175072381Y-87621904D01*
X175072381Y-87812381D01*
X175024762Y-87907619D01*
X174405714Y-86574285D02*
X175072381Y-86574285D01*
X174405714Y-87002857D02*
X174929524Y-87002857D01*
X175024762Y-86955238D01*
X175072381Y-86860000D01*
X175072381Y-86717142D01*
X175024762Y-86621904D01*
X174977143Y-86574285D01*
X174405714Y-86240952D02*
X174405714Y-85860000D01*
X175072381Y-86098095D02*
X174215238Y-86098095D01*
X174120000Y-86050476D01*
X174072381Y-85955238D01*
X174072381Y-85860000D01*
X175024762Y-85098094D02*
X175072381Y-85193332D01*
X175072381Y-85383809D01*
X175024762Y-85479047D01*
X174977143Y-85526666D01*
X174881905Y-85574285D01*
X174596190Y-85574285D01*
X174500952Y-85526666D01*
X174453333Y-85479047D01*
X174405714Y-85383809D01*
X174405714Y-85193332D01*
X174453333Y-85098094D01*
X174167619Y-84717142D02*
X174120000Y-84669523D01*
X174072381Y-84574285D01*
X174072381Y-84336189D01*
X174120000Y-84240951D01*
X174167619Y-84193332D01*
X174262857Y-84145713D01*
X174358095Y-84145713D01*
X174500952Y-84193332D01*
X175072381Y-84764761D01*
X175072381Y-84145713D01*
X136972381Y-60967620D02*
X136305714Y-60967620D01*
X136496190Y-60967620D02*
X136400952Y-60920001D01*
X136353333Y-60872382D01*
X136305714Y-60777144D01*
X136305714Y-60681905D01*
X136305714Y-60348572D02*
X137305714Y-60348572D01*
X136353333Y-60348572D02*
X136305714Y-60253334D01*
X136305714Y-60062857D01*
X136353333Y-59967619D01*
X136400952Y-59920000D01*
X136496190Y-59872381D01*
X136781905Y-59872381D01*
X136877143Y-59920000D01*
X136924762Y-59967619D01*
X136972381Y-60062857D01*
X136972381Y-60253334D01*
X136924762Y-60348572D01*
X136305714Y-59015238D02*
X136972381Y-59015238D01*
X136305714Y-59443810D02*
X136829524Y-59443810D01*
X136924762Y-59396191D01*
X136972381Y-59300953D01*
X136972381Y-59158095D01*
X136924762Y-59062857D01*
X136877143Y-59015238D01*
X136924762Y-58586667D02*
X136972381Y-58491429D01*
X136972381Y-58300953D01*
X136924762Y-58205714D01*
X136829524Y-58158095D01*
X136781905Y-58158095D01*
X136686667Y-58205714D01*
X136639048Y-58300953D01*
X136639048Y-58443810D01*
X136591429Y-58539048D01*
X136496190Y-58586667D01*
X136448571Y-58586667D01*
X136353333Y-58539048D01*
X136305714Y-58443810D01*
X136305714Y-58300953D01*
X136353333Y-58205714D01*
X136924762Y-57300952D02*
X136972381Y-57396190D01*
X136972381Y-57586667D01*
X136924762Y-57681905D01*
X136877143Y-57729524D01*
X136781905Y-57777143D01*
X136496190Y-57777143D01*
X136400952Y-57729524D01*
X136353333Y-57681905D01*
X136305714Y-57586667D01*
X136305714Y-57396190D01*
X136353333Y-57300952D01*
X136972381Y-56729524D02*
X136924762Y-56824762D01*
X136829524Y-56872381D01*
X135972381Y-56872381D01*
X136972381Y-55824761D02*
X136972381Y-56396190D01*
X136972381Y-56110476D02*
X135972381Y-56110476D01*
X136115238Y-56205714D01*
X136210476Y-56300952D01*
X136258095Y-56396190D01*
X144602381Y-61181905D02*
X143935714Y-61181905D01*
X144126190Y-61181905D02*
X144030952Y-61134286D01*
X143983333Y-61086667D01*
X143935714Y-60991429D01*
X143935714Y-60896190D01*
X143935714Y-60562857D02*
X144935714Y-60562857D01*
X143983333Y-60562857D02*
X143935714Y-60467619D01*
X143935714Y-60277142D01*
X143983333Y-60181904D01*
X144030952Y-60134285D01*
X144126190Y-60086666D01*
X144411905Y-60086666D01*
X144507143Y-60134285D01*
X144554762Y-60181904D01*
X144602381Y-60277142D01*
X144602381Y-60467619D01*
X144554762Y-60562857D01*
X143935714Y-59229523D02*
X144602381Y-59229523D01*
X143935714Y-59658095D02*
X144459524Y-59658095D01*
X144554762Y-59610476D01*
X144602381Y-59515238D01*
X144602381Y-59372380D01*
X144554762Y-59277142D01*
X144507143Y-59229523D01*
X144554762Y-58800952D02*
X144602381Y-58705714D01*
X144602381Y-58515238D01*
X144554762Y-58419999D01*
X144459524Y-58372380D01*
X144411905Y-58372380D01*
X144316667Y-58419999D01*
X144269048Y-58515238D01*
X144269048Y-58658095D01*
X144221429Y-58753333D01*
X144126190Y-58800952D01*
X144078571Y-58800952D01*
X143983333Y-58753333D01*
X143935714Y-58658095D01*
X143935714Y-58515238D01*
X143983333Y-58419999D01*
X144602381Y-57515237D02*
X143602381Y-57515237D01*
X144554762Y-57515237D02*
X144602381Y-57610475D01*
X144602381Y-57800952D01*
X144554762Y-57896190D01*
X144507143Y-57943809D01*
X144411905Y-57991428D01*
X144126190Y-57991428D01*
X144030952Y-57943809D01*
X143983333Y-57896190D01*
X143935714Y-57800952D01*
X143935714Y-57610475D01*
X143983333Y-57515237D01*
X144602381Y-56610475D02*
X144078571Y-56610475D01*
X143983333Y-56658094D01*
X143935714Y-56753332D01*
X143935714Y-56943809D01*
X143983333Y-57039047D01*
X144554762Y-56610475D02*
X144602381Y-56705713D01*
X144602381Y-56943809D01*
X144554762Y-57039047D01*
X144459524Y-57086666D01*
X144364286Y-57086666D01*
X144269048Y-57039047D01*
X144221429Y-56943809D01*
X144221429Y-56705713D01*
X144173810Y-56610475D01*
X144602381Y-55610475D02*
X144602381Y-56181904D01*
X144602381Y-55896190D02*
X143602381Y-55896190D01*
X143745238Y-55991428D01*
X143840476Y-56086666D01*
X143888095Y-56181904D01*
X169807142Y-90602381D02*
X169807142Y-89935714D01*
X169807142Y-90126190D02*
X169854761Y-90030952D01*
X169902380Y-89983333D01*
X169997618Y-89935714D01*
X170092857Y-89935714D01*
X170330952Y-90602381D02*
X170854762Y-89935714D01*
X170330952Y-89935714D02*
X170854762Y-90602381D01*
X171092857Y-89935714D02*
X171473809Y-89935714D01*
X171235714Y-89602381D02*
X171235714Y-90459524D01*
X171283333Y-90554762D01*
X171378571Y-90602381D01*
X171473809Y-90602381D01*
X171711905Y-90602381D02*
X172235715Y-89935714D01*
X171711905Y-89935714D02*
X172235715Y-90602381D01*
X173140477Y-90602381D02*
X172569048Y-90602381D01*
X172854762Y-90602381D02*
X172854762Y-89602381D01*
X172759524Y-89745238D01*
X172664286Y-89840476D01*
X172569048Y-89888095D01*
X125463571Y-47961190D02*
X126130238Y-47961190D01*
X125463571Y-48389762D02*
X125987381Y-48389762D01*
X126082619Y-48342143D01*
X126130238Y-48246905D01*
X126130238Y-48104047D01*
X126082619Y-48008809D01*
X126035000Y-47961190D01*
X126130238Y-47342143D02*
X126082619Y-47437381D01*
X125987381Y-47485000D01*
X125130238Y-47485000D01*
X125463571Y-46961190D02*
X126130238Y-46961190D01*
X125558809Y-46961190D02*
X125511190Y-46913571D01*
X125463571Y-46818333D01*
X125463571Y-46675475D01*
X125511190Y-46580237D01*
X125606428Y-46532618D01*
X126130238Y-46532618D01*
X126130238Y-45532618D02*
X126130238Y-46104047D01*
X126130238Y-45818333D02*
X125130238Y-45818333D01*
X125273095Y-45913571D01*
X125368333Y-46008809D01*
X125415952Y-46104047D01*
M02*
