G04 #@! TF.FileFunction,Legend,Bot*
%FSLAX46Y46*%
G04 Gerber Fmt 4.6, Leading zero omitted, Abs format (unit mm)*
G04 Created by KiCad (PCBNEW 4.0.2-stable) date 2016-07-18 1:59:09 PM*
%MOMM*%
G01*
G04 APERTURE LIST*
%ADD10C,0.050000*%
%ADD11C,0.300000*%
G04 APERTURE END LIST*
D10*
D11*
X176695714Y-32340000D02*
X176838571Y-32268571D01*
X177052857Y-32268571D01*
X177267142Y-32340000D01*
X177410000Y-32482857D01*
X177481428Y-32625714D01*
X177552857Y-32911429D01*
X177552857Y-33125714D01*
X177481428Y-33411429D01*
X177410000Y-33554286D01*
X177267142Y-33697143D01*
X177052857Y-33768571D01*
X176910000Y-33768571D01*
X176695714Y-33697143D01*
X176624285Y-33625714D01*
X176624285Y-33125714D01*
X176910000Y-33125714D01*
X175124285Y-33768571D02*
X175624285Y-33054286D01*
X175981428Y-33768571D02*
X175981428Y-32268571D01*
X175410000Y-32268571D01*
X175267142Y-32340000D01*
X175195714Y-32411429D01*
X175124285Y-32554286D01*
X175124285Y-32768571D01*
X175195714Y-32911429D01*
X175267142Y-32982857D01*
X175410000Y-33054286D01*
X175981428Y-33054286D01*
X174552857Y-33340000D02*
X173838571Y-33340000D01*
X174695714Y-33768571D02*
X174195714Y-32268571D01*
X173695714Y-33768571D01*
X172695714Y-32982857D02*
X173195714Y-32982857D01*
X173195714Y-33768571D02*
X173195714Y-32268571D01*
X172481428Y-32268571D01*
X171410000Y-32982857D02*
X171910000Y-32982857D01*
X171910000Y-33768571D02*
X171910000Y-32268571D01*
X171195714Y-32268571D01*
X170624286Y-33768571D02*
X170624286Y-32268571D01*
X170124286Y-32268571D02*
X169267143Y-32268571D01*
X169695714Y-33768571D02*
X169695714Y-32268571D01*
X168767143Y-33768571D02*
X168767143Y-32268571D01*
X166052857Y-33768571D02*
X166552857Y-33054286D01*
X166910000Y-33768571D02*
X166910000Y-32268571D01*
X166338572Y-32268571D01*
X166195714Y-32340000D01*
X166124286Y-32411429D01*
X166052857Y-32554286D01*
X166052857Y-32768571D01*
X166124286Y-32911429D01*
X166195714Y-32982857D01*
X166338572Y-33054286D01*
X166910000Y-33054286D01*
X165124286Y-32268571D02*
X164838572Y-32268571D01*
X164695714Y-32340000D01*
X164552857Y-32482857D01*
X164481429Y-32768571D01*
X164481429Y-33268571D01*
X164552857Y-33554286D01*
X164695714Y-33697143D01*
X164838572Y-33768571D01*
X165124286Y-33768571D01*
X165267143Y-33697143D01*
X165410000Y-33554286D01*
X165481429Y-33268571D01*
X165481429Y-32768571D01*
X165410000Y-32482857D01*
X165267143Y-32340000D01*
X165124286Y-32268571D01*
X163338571Y-32982857D02*
X163124285Y-33054286D01*
X163052857Y-33125714D01*
X162981428Y-33268571D01*
X162981428Y-33482857D01*
X163052857Y-33625714D01*
X163124285Y-33697143D01*
X163267143Y-33768571D01*
X163838571Y-33768571D01*
X163838571Y-32268571D01*
X163338571Y-32268571D01*
X163195714Y-32340000D01*
X163124285Y-32411429D01*
X163052857Y-32554286D01*
X163052857Y-32697143D01*
X163124285Y-32840000D01*
X163195714Y-32911429D01*
X163338571Y-32982857D01*
X163838571Y-32982857D01*
X162052857Y-32268571D02*
X161767143Y-32268571D01*
X161624285Y-32340000D01*
X161481428Y-32482857D01*
X161410000Y-32768571D01*
X161410000Y-33268571D01*
X161481428Y-33554286D01*
X161624285Y-33697143D01*
X161767143Y-33768571D01*
X162052857Y-33768571D01*
X162195714Y-33697143D01*
X162338571Y-33554286D01*
X162410000Y-33268571D01*
X162410000Y-32768571D01*
X162338571Y-32482857D01*
X162195714Y-32340000D01*
X162052857Y-32268571D01*
X160981428Y-32268571D02*
X160124285Y-32268571D01*
X160552856Y-33768571D02*
X160552856Y-32268571D01*
X172874285Y-36168571D02*
X173731428Y-36168571D01*
X173302856Y-36168571D02*
X173302856Y-34668571D01*
X173445713Y-34882857D01*
X173588571Y-35025714D01*
X173731428Y-35097143D01*
X172231428Y-36025714D02*
X172160000Y-36097143D01*
X172231428Y-36168571D01*
X172302857Y-36097143D01*
X172231428Y-36025714D01*
X172231428Y-36168571D01*
X171231428Y-34668571D02*
X171088571Y-34668571D01*
X170945714Y-34740000D01*
X170874285Y-34811429D01*
X170802856Y-34954286D01*
X170731428Y-35240000D01*
X170731428Y-35597143D01*
X170802856Y-35882857D01*
X170874285Y-36025714D01*
X170945714Y-36097143D01*
X171088571Y-36168571D01*
X171231428Y-36168571D01*
X171374285Y-36097143D01*
X171445714Y-36025714D01*
X171517142Y-35882857D01*
X171588571Y-35597143D01*
X171588571Y-35240000D01*
X171517142Y-34954286D01*
X171445714Y-34811429D01*
X171374285Y-34740000D01*
X171231428Y-34668571D01*
X168517143Y-34668571D02*
X168517143Y-35740000D01*
X168588571Y-35954286D01*
X168731428Y-36097143D01*
X168945714Y-36168571D01*
X169088571Y-36168571D01*
X167517143Y-34668571D02*
X167231429Y-34668571D01*
X167088571Y-34740000D01*
X166945714Y-34882857D01*
X166874286Y-35168571D01*
X166874286Y-35668571D01*
X166945714Y-35954286D01*
X167088571Y-36097143D01*
X167231429Y-36168571D01*
X167517143Y-36168571D01*
X167660000Y-36097143D01*
X167802857Y-35954286D01*
X167874286Y-35668571D01*
X167874286Y-35168571D01*
X167802857Y-34882857D01*
X167660000Y-34740000D01*
X167517143Y-34668571D01*
X166302857Y-36097143D02*
X166088571Y-36168571D01*
X165731428Y-36168571D01*
X165588571Y-36097143D01*
X165517142Y-36025714D01*
X165445714Y-35882857D01*
X165445714Y-35740000D01*
X165517142Y-35597143D01*
X165588571Y-35525714D01*
X165731428Y-35454286D01*
X166017142Y-35382857D01*
X166160000Y-35311429D01*
X166231428Y-35240000D01*
X166302857Y-35097143D01*
X166302857Y-34954286D01*
X166231428Y-34811429D01*
X166160000Y-34740000D01*
X166017142Y-34668571D01*
X165660000Y-34668571D01*
X165445714Y-34740000D01*
X164802857Y-35382857D02*
X164302857Y-35382857D01*
X164088571Y-36168571D02*
X164802857Y-36168571D01*
X164802857Y-34668571D01*
X164088571Y-34668571D01*
M02*
